<?xml version="1.0" encoding="UTF-8" standalone="no"?>
<svg
   width="163.75676mm"
   height="94.720924mm"
   viewBox="0 0 181.95196 105.24547"
   version="1.1"
   id="svg902"
   xml:space="preserve"
   xmlns="http://www.w3.org/2000/svg"
   xmlns:svg="http://www.w3.org/2000/svg"
   xmlns:rdf="http://www.w3.org/1999/02/22-rdf-syntax-ns#"
   xmlns:cc="http://creativecommons.org/ns#"
   xmlns:dc="http://purl.org/dc/elements/1.1/"><defs
     id="defs896" /><metadata
     id="metadata899"><rdf:RDF><cc:Work
         rdf:about=""><dc:format>image/svg+xml</dc:format><dc:type
           rdf:resource="http://purl.org/dc/dcmitype/StillImage" /></cc:Work></rdf:RDF></metadata><path
     id="rect2-59"
     style="fill:#455047;stroke:#ffffff;stroke-width:0;paint-order:markers stroke fill"
     d="m 37.720612,7.6436549 h 0.723663 V 98.825268 h -0.723663 z" /><path
     id="rect2-59-8"
     style="fill:#455047;stroke:#ffffff;stroke-width:0;paint-order:markers stroke fill"
     d="M 42.424316,7.6436539 H 43.14798 V 99.006178 h -0.723664 z" /><path
     id="rect2-59-8-80"
     style="fill:#455047;stroke:#ffffff;stroke-width:0;paint-order:markers stroke fill"
     d="m 180.68929,10.44832 v 0.723332 H 35.594742 V 10.44832 Z" /><path
     id="rect2-59-8-80-7"
     style="fill:#455047;stroke:#ffffff;stroke-width:0;paint-order:markers stroke fill"
     d="m 180.68929,19.267763 v 0.723332 H 35.594742 v -0.723332 z" /><path
     id="rect2-59-8-80-7-5"
     style="fill:#455047;stroke:#ffffff;stroke-width:0;paint-order:markers stroke fill"
     d="m 180.68929,28.087211 v 0.723333 H 35.594742 v -0.723333 z" /><path
     id="rect2-59-8-80-7-5-2"
     style="fill:#455047;stroke:#ffffff;stroke-width:0;paint-order:markers stroke fill"
     d="M 180.68929,36.906658 V 37.62999 H 35.594742 v -0.723332 z" /><path
     id="rect2-59-8-5"
     style="fill:#455047;stroke:#ffffff;stroke-width:0;paint-order:markers stroke fill"
     d="M 47.308937,7.6436539 H 48.0326 V 99.006178 h -0.723663 z" /><path
     id="rect2-59-8-5-8"
     style="fill:#455047;stroke:#ffffff;stroke-width:0;paint-order:markers stroke fill"
     d="m 52.012642,7.6436539 h 0.723663 V 99.006178 h -0.723663 z" /><path
     id="rect2-59-8-5-8-9"
     style="fill:#455047;stroke:#ffffff;stroke-width:0;paint-order:markers stroke fill"
     d="M 56.716347,7.6436539 H 57.44001 V 99.006178 h -0.723663 z" /><path
     id="rect2-59-8-5-8-9-4"
     style="fill:#455047;stroke:#ffffff;stroke-width:0;paint-order:markers stroke fill"
     d="m 61.420052,7.6436539 h 0.723663 V 99.006178 h -0.723663 z" /><path
     id="rect2-59-2"
     style="fill:#455047;stroke:#ffffff;stroke-width:0;paint-order:markers stroke fill"
     d="m 65.942833,7.6436539 h 0.723663 V 99.006178 h -0.723663 z" /><path
     id="rect2-59-8-0"
     style="fill:#455047;stroke:#ffffff;stroke-width:0;paint-order:markers stroke fill"
     d="m 70.646507,7.6436539 h 0.723664 V 99.006178 h -0.723664 z" /><path
     id="rect2-59-8-5-4"
     style="fill:#455047;stroke:#ffffff;stroke-width:0;paint-order:markers stroke fill"
     d="m 75.53109,7.6436539 h 0.723663 V 99.006178 H 75.53109 Z" /><path
     id="rect2-59-8-5-8-2"
     style="fill:#455047;stroke:#ffffff;stroke-width:0;paint-order:markers stroke fill"
     d="m 80.234764,7.6436539 h 0.723663 V 99.006178 h -0.723663 z" /><path
     id="rect2-59-8-5-8-9-7"
     style="fill:#455047;stroke:#ffffff;stroke-width:0;paint-order:markers stroke fill"
     d="m 84.938438,7.6436539 h 0.723664 V 99.006178 h -0.723664 z" /><path
     id="rect2-59-8-5-8-9-4-6"
     style="fill:#455047;stroke:#ffffff;stroke-width:0;paint-order:markers stroke fill"
     d="m 89.642113,7.6436539 h 0.723663 V 99.006178 h -0.723663 z" /><path
     id="rect2-59-9"
     style="fill:#455047;stroke:#ffffff;stroke-width:0;paint-order:markers stroke fill"
     d="m 94.752838,7.6436539 h 0.723664 V 99.006178 h -0.723664 z" /><path
     id="rect2-59-8-8"
     style="fill:#455047;stroke:#ffffff;stroke-width:0;paint-order:markers stroke fill"
     d="m 99.456512,7.6436539 h 0.723668 V 99.006178 h -0.723668 z" /><path
     id="rect2-59-8-5-5"
     style="fill:#455047;stroke:#ffffff;stroke-width:0;paint-order:markers stroke fill"
     d="m 104.34109,7.6436539 h 0.72366 V 99.006178 h -0.72366 z" /><path
     id="rect2-59-8-5-8-8"
     style="fill:#455047;stroke:#ffffff;stroke-width:0;paint-order:markers stroke fill"
     d="m 109.04478,7.6436539 h 0.72366 V 99.006178 h -0.72366 z" /><path
     id="rect2-59-8-5-8-9-3"
     style="fill:#455047;stroke:#ffffff;stroke-width:0;paint-order:markers stroke fill"
     d="m 113.74846,7.6436539 h 0.72366 V 99.006178 h -0.72366 z" /><path
     id="rect2-59-8-5-8-9-4-2"
     style="fill:#455047;stroke:#ffffff;stroke-width:0;paint-order:markers stroke fill"
     d="m 118.45213,7.6436539 h 0.72367 V 99.006178 h -0.72367 z" /><path
     id="rect2-59-2-8"
     style="fill:#455047;stroke:#ffffff;stroke-width:0;paint-order:markers stroke fill"
     d="m 122.97491,7.6436539 h 0.72366 V 99.006178 h -0.72366 z" /><path
     id="rect2-59-8-0-3"
     style="fill:#455047;stroke:#ffffff;stroke-width:0;paint-order:markers stroke fill"
     d="m 127.67859,7.6436539 h 0.72366 V 99.006178 h -0.72366 z" /><path
     id="rect2-59-8-5-4-5"
     style="fill:#455047;stroke:#ffffff;stroke-width:0;paint-order:markers stroke fill"
     d="m 132.56323,7.6436539 h 0.72367 V 99.006178 h -0.72367 z" /><path
     id="rect2-59-8-5-8-2-2"
     style="fill:#455047;stroke:#ffffff;stroke-width:0;paint-order:markers stroke fill"
     d="m 137.26697,7.6436539 h 0.72366 V 99.006178 h -0.72366 z" /><path
     id="rect2-59-8-5-8-9-7-1"
     style="fill:#455047;stroke:#ffffff;stroke-width:0;paint-order:markers stroke fill"
     d="m 141.9707,7.6436539 h 0.72367 V 99.006178 h -0.72367 z" /><path
     id="rect2-59-8-5-8-9-4-6-3"
     style="fill:#455047;stroke:#ffffff;stroke-width:0;paint-order:markers stroke fill"
     d="m 146.67444,7.6436539 h 0.72366 V 99.006178 h -0.72366 z" /><path
     id="rect2-59-8-5-8-9-4-2-0"
     style="fill:#455047;stroke:#ffffff;stroke-width:0;paint-order:markers stroke fill"
     d="m 151.37817,7.6436539 h 0.72367 V 99.006178 h -0.72367 z" /><path
     id="rect2-59-2-8-4"
     style="fill:#455047;stroke:#ffffff;stroke-width:0;paint-order:markers stroke fill"
     d="m 155.90099,7.6436539 h 0.72366 V 99.006178 h -0.72366 z" /><path
     id="rect2-59-8-0-3-1"
     style="fill:#455047;stroke:#ffffff;stroke-width:0;paint-order:markers stroke fill"
     d="m 160.60472,7.6436539 h 0.72366 V 99.006178 h -0.72366 z" /><path
     id="rect2-59-8-5-4-5-6"
     style="fill:#455047;stroke:#ffffff;stroke-width:0;paint-order:markers stroke fill"
     d="m 165.48938,7.6436539 h 0.72366 V 99.006178 h -0.72366 z" /><path
     id="rect2-59-8-5-8-2-2-4"
     style="fill:#455047;stroke:#ffffff;stroke-width:0;paint-order:markers stroke fill"
     d="m 170.19312,7.6436539 h 0.72366 V 99.006178 h -0.72366 z" /><path
     id="rect2-59-8-5-8-9-7-1-1"
     style="fill:#455047;stroke:#ffffff;stroke-width:0;paint-order:markers stroke fill"
     d="m 174.89685,7.6436539 h 0.72366 V 99.006178 h -0.72366 z" /><path
     id="rect2-59-8-5-8-9-4-6-3-5"
     style="fill:#455047;stroke:#ffffff;stroke-width:0;paint-order:markers stroke fill"
     d="m 179.60059,7.6436539 h 0.72366 V 99.006178 h -0.72366 z" /><path
     id="rect2-59-8-80-3"
     style="fill:#455047;stroke:#ffffff;stroke-width:0;paint-order:markers stroke fill"
     d="m 180.68929,45.726108 v 0.723333 H 35.594742 v -0.723333 z" /><path
     id="rect2-59-8-80-7-3"
     style="fill:#455047;stroke:#ffffff;stroke-width:0;paint-order:markers stroke fill"
     d="m 180.68929,54.545551 v 0.723332 H 35.594742 v -0.723332 z" /><path
     id="rect2-59-8-80-7-5-0"
     style="fill:#455047;stroke:#ffffff;stroke-width:0;paint-order:markers stroke fill"
     d="m 180.68929,63.364978 v 0.723333 H 35.594742 v -0.723333 z" /><path
     id="rect2-59-8-80-7-5-2-2"
     style="fill:#455047;stroke:#ffffff;stroke-width:0;paint-order:markers stroke fill"
     d="M 180.68929,72.184368 V 72.9077 H 35.594742 v -0.723332 z" /><path
     id="rect2-59-8-80-3-1"
     style="fill:#455047;stroke:#ffffff;stroke-width:0;paint-order:markers stroke fill"
     d="m 180.68929,81.003757 v 0.723332 H 35.594742 v -0.723332 z" /><path
     id="rect2-59-8-80-7-3-9"
     style="fill:#455047;stroke:#ffffff;stroke-width:0;paint-order:markers stroke fill"
     d="m 180.68929,89.823146 v 0.723333 H 35.594742 v -0.723333 z" /><path
     id="rect2-59-8-80-7-3-9-3"
     style="fill:#455047;stroke:#ffffff;stroke-width:0;paint-order:markers stroke fill"
     d="m 180.68929,98.642538 v 0.72333 H 35.594742 v -0.72333 z" /><path
     id="rect2-59-8-80-7-5-0-8"
     style="fill:#455047;stroke:#ffffff;stroke-width:0;paint-order:markers stroke fill"
     d="m 24.064953,7.5085019 v 0.723332 H 0.36497879 v -0.723332 z" /><path
     id="rect2-59-8-80-7-5-2-2-5"
     style="fill:#455047;stroke:#ffffff;stroke-width:0;paint-order:markers stroke fill"
     d="M 24.064953,16.327947 V 17.05128 H 0.36497879 v -0.723333 z" /><path
     id="rect2-59-8-80-7-5-0-8-5"
     style="fill:#455047;stroke:#ffffff;stroke-width:0;paint-order:markers stroke fill"
     d="m 24.064953,25.147394 v 0.723332 H 0.36497879 v -0.723332 z" /><path
     id="rect2-59-8-80-7-5-2-2-5-2"
     style="fill:#455047;stroke:#ffffff;stroke-width:0;paint-order:markers stroke fill"
     d="m 24.064953,33.966842 v 0.723333 H 0.36497879 v -0.723333 z" /><path
     id="rect2-59-8-80-7-5-0-8-1"
     style="fill:#455047;stroke:#ffffff;stroke-width:0;paint-order:markers stroke fill"
     d="m 24.064953,42.786285 v 0.723332 H 0.36497879 v -0.723332 z" /><path
     id="rect2-59-8-80-7-5-2-2-5-0"
     style="fill:#455047;stroke:#ffffff;stroke-width:0;paint-order:markers stroke fill"
     d="m 24.064953,51.605732 v 0.723332 H 0.36497879 v -0.723332 z" /><path
     id="rect2-59-8-80-7-5-0-8-5-8"
     style="fill:#455047;stroke:#ffffff;stroke-width:0;paint-order:markers stroke fill"
     d="m 24.064953,60.425182 v 0.723332 H 0.36497879 v -0.723332 z" /><path
     id="rect2-59-8-80-7-5-2-2-5-2-7"
     style="fill:#455047;stroke:#ffffff;stroke-width:0;paint-order:markers stroke fill"
     d="m 24.064953,69.244571 v 0.723333 H 0.36497879 v -0.723333 z" /><path
     id="rect2-59-8-80-7-5-0-8-1-5"
     style="fill:#455047;stroke:#ffffff;stroke-width:0;paint-order:markers stroke fill"
     d="m 24.064953,78.063953 v 0.723332 H 0.36497879 v -0.723332 z" /><path
     id="rect2-59-8-80-7-5-2-2-5-0-0"
     style="fill:#455047;stroke:#ffffff;stroke-width:0;paint-order:markers stroke fill"
     d="m 24.064953,86.883342 v 0.723333 H 0.36497879 v -0.723333 z" /><path
     id="rect2-59-8-80-7-5-0-8-5-8-8"
     style="fill:#455047;stroke:#ffffff;stroke-width:0;paint-order:markers stroke fill"
     d="m 24.064953,95.702739 v 0.723329 H 0.36497879 v -0.723329 z" /><path
     id="rect2-59-8-80-7-5-0-8-5-8-8-8"
     style="fill:#455047;stroke:#ffffff;stroke-width:0;paint-order:markers stroke fill"
     d="m 24.064953,104.52214 v 0.72333 H 0.36497879 v -0.72333 z" /><path
     id="rect2-59-8-5-8-5"
     style="fill:#455047;stroke:#ffffff;stroke-width:0;paint-order:markers stroke fill"
     d="M 2.0357797,4.1158767 H 2.7594431 V 104.70511 H 2.0357797 Z" /><path
     id="rect2-59-8-5-8-9-74"
     style="fill:#455047;stroke:#ffffff;stroke-width:0;paint-order:markers stroke fill"
     d="M 6.7394843,4.1158767 H 7.4631477 V 104.70511 H 6.7394843 Z" /><path
     id="rect2-59-8-5-8-9-4-7"
     style="fill:#455047;stroke:#ffffff;stroke-width:0;paint-order:markers stroke fill"
     d="m 11.443189,4.1158767 h 0.723663 V 104.70511 h -0.723663 z" /><path
     id="rect2-59-2-4"
     style="fill:#455047;stroke:#ffffff;stroke-width:0;paint-order:markers stroke fill"
     d="m 15.965976,4.1158767 h 0.723663 V 104.70511 h -0.723663 z" /><path
     id="rect2-59-8-0-8"
     style="fill:#455047;stroke:#ffffff;stroke-width:0;paint-order:markers stroke fill"
     d="m 20.669682,4.1158767 h 0.723663 V 104.70511 h -0.723663 z" /><path
     id="rect1"
     style="fill:#455047;stroke:#ffffff;stroke-width:0;paint-order:markers stroke fill;fill-opacity:1"
     d="m 35.04826,4.3871703 h 146.9037 V 8.5482359 H 35.04826 Z" /><path
     id="rect2-5"
     style="fill:#455047;stroke:#ffffff;stroke-width:0;paint-order:markers stroke fill"
     d="m 22.433577,0.00760968 h 4.341981 V 105.02172 h -4.341981 z" /><path
     id="rect2-5-1"
     style="fill:#455047;stroke:#ffffff;stroke-width:0;paint-order:markers stroke fill"
     d="m 31.253022,3.4342186 h 4.341981 V 105.02172 h -4.341981 z" /><path
     id="rect1-6"
     style="fill:#455047;fill-opacity:1;stroke:#ffffff;stroke-width:0;paint-order:markers stroke fill"
     d="M 4.5902241e-7,0.85944777 H 24.581161 V 5.020513 H 4.5902241e-7 Z" /><g
     id="g6"
     transform="matrix(0.88035902,0,0,0.88035902,227.74057,41.898276)"
     style="stroke-width:1.1359"><path
       id="rect4-7"
       style="fill:#ffffff;stroke:#000000;stroke-width:0;paint-order:markers stroke fill"
       d="M -200.76307,-39.95819 H -88.253288 V 30.61272 H -200.76307 Z" /><path
       id="rect4"
       style="fill:#ffffff;stroke:#000000;stroke-width:3.15527;paint-order:markers stroke fill"
       d="M -197.06323,-36.47626 H -91.951098 V 27.02523 H -197.06323 Z" /><path
       id="rect4-5"
       style="stroke:#ffffff;stroke-width:0;paint-order:markers stroke fill"
       d="M -197.06323,-36.47626 H -91.951098 V -6.2633 H -197.06323 Z" /><path
       id="path4"
       style="fill:#d42e12;stroke:#ffffff;stroke-width:3.15528;paint-order:markers stroke fill"
       d="m -102.45087,-21.27037 a 40.970795,10.688345 0 0 1 -40.97079,10.68835 40.970795,10.688345 0 0 1 -40.9708,-10.68835 40.970795,10.688345 0 0 1 40.9708,-10.68834 40.970795,10.688345 0 0 1 40.97079,10.68834 z" /><path
       d="m -175.08085,-25.84305 h 4.51842 q 1.33606,0 2.15515,0.33686 0.82581,0.33686 1.36291,0.96695 0.53711,0.63005 0.77881,1.46599 0.2417,0.83593 0.2417,1.77169 0,1.46602 -0.36255,2.27699 -0.35583,0.80473 -0.99365,1.35371 -0.63781,0.54272 -1.36962,0.72364 -1.00037,0.24953 -1.81275,0.24953 h -4.51842 z m 3.04138,2.07112 v 4.99689 h 0.74523 q 0.95337,0 1.3562,-0.19329 0.40283,-0.19955 0.63111,-0.68622 0.22827,-0.49284 0.22827,-1.59078 0,-1.45352 -0.51025,-1.99002 -0.51025,-0.5365 -1.69189,-0.5365 z m 13.07859,5.56458 h -3.46435 l -0.47669,1.50966 h -3.10851 l 3.69934,-9.14536 h 3.31664 l 3.69933,9.14536 h -3.18236 z m -0.63782,-1.97755 -1.08764,-3.2876 -1.08094,3.2876 z m 5.29723,-5.65815 h 2.83996 l 3.70605,5.05926 v -5.05926 h 2.86682 v 9.14536 h -2.86682 l -3.68591,-5.02184 v 5.02184 h -2.8601 z m 16.38181,5.83282 v -1.90269 h 4.6997 v 3.89896 q -1.34948,0.85465 -2.39013,1.16656 -1.03393,0.30569 -2.45727,0.30569 -1.75232,0 -2.8601,-0.55523 -1.10108,-0.5552 -1.71204,-1.65314 -0.60424,-1.09796 -0.60424,-2.52029 0,-1.49719 0.66467,-2.60139 0.66467,-1.11043 1.94701,-1.68433 1.00037,-0.44293 2.69226,-0.44293 1.63147,0 2.43713,0.27448 0.81238,0.2745 1.34277,0.85467 0.53711,0.5739 0.80566,1.45976 l -2.93395,0.48657 q -0.18128,-0.51776 -0.61767,-0.79226 -0.42969,-0.27448 -1.10108,-0.27448 -1.00036,0 -1.59789,0.64879 -0.59082,0.64256 -0.59082,2.03993 0,1.48472 0.59753,2.12103 0.60425,0.6363 1.67846,0.6363 0.51026,0 0.97351,-0.1372 0.46326,-0.13721 1.06079,-0.46789 v -0.86089 z m 6.49902,-5.83282 h 8.15062 v 1.95259 h -5.10253 v 1.45352 h 4.73327 v 1.86526 h -4.73327 v 1.80288 h 5.25023 v 2.07111 h -8.29832 z m 9.97679,9.14536 v -9.14536 h 5.06896 q 1.40991,0 2.15514,0.22457 0.74524,0.22457 1.20179,0.83593 0.45654,0.60513 0.45654,1.47849 0,0.76107 -0.34912,1.31628 -0.34912,0.54896 -0.96008,0.89208 -0.38941,0.21835 -1.06751,0.36183 0.54382,0.16848 0.79224,0.33686 0.16784,0.11242 0.48339,0.48034 0.32227,0.36808 0.42969,0.5677 l 1.47034,2.65128 h -3.4375 l -1.62475,-2.79476 q -0.30884,-0.54274 -0.55054,-0.70492 -0.32897,-0.21206 -0.74523,-0.21206 h -0.26856 v 3.71178 z m 3.0548,-5.43981 h 1.28235 q 0.20812,0 0.80566,-0.12469 0.30212,-0.056 0.49011,-0.28696 0.1947,-0.23084 0.1947,-0.53028 0,-0.44291 -0.30212,-0.67997 -0.30212,-0.23705 -1.13464,-0.23705 h -1.33606 z"
       id="text4"
       style="font-weight:900;font-size:5.92225px;line-height:1.25;font-family:Arial;-inkscape-font-specification:'Arial Heavy';letter-spacing:0px;word-spacing:0px;fill:#ffffff;fill-opacity:1;stroke-width:0.333932"
       aria-label="DANGER" /><path
       d="M -188.24963,7.54863 V -1.5075 h 2.73661 l 1.6432,6.17744 1.62467,-6.17744 h 2.74278 v 9.05613 h -1.6988 V 0.41986 l -1.79763,7.12877 h -1.76057 l -1.79146,-7.12877 v 7.12877 z m 10.10012,-2.94664 1.7791,-0.17297 q 0.16062,0.89573 0.64863,1.3158 0.4942,0.42006 1.32815,0.42006 0.88338,0 1.32815,-0.37064 0.45096,-0.37683 0.45096,-0.8772 0,-0.32123 -0.1915,-0.54361 -0.18533,-0.22857 -0.65481,-0.39536 -0.32123,-0.11119 -1.46406,-0.39536 -1.47023,-0.36447 -2.06326,-0.89573 -0.83396,-0.74747 -0.83396,-1.82234 0,-0.69187 0.38918,-1.29109 0.39536,-0.60538 1.13047,-0.92043 0.7413,-0.31505 1.78528,-0.31505 1.70498,0 2.56364,0.74747 0.86484,0.74747 0.90809,1.99531 l -1.82853,0.0803 q -0.11737,-0.69805 -0.50655,-1.00075 -0.383,-0.30887 -1.15518,-0.30887 -0.79689,0 -1.24784,0.3274 -0.29034,0.21004 -0.29034,0.56215 0,0.32123 0.27181,0.54979 0.34593,0.29034 1.68026,0.60539 1.33433,0.31505 1.9706,0.65481 0.64246,0.33358 1.00075,0.92044 0.36447,0.58068 0.36447,1.43934 0,0.77836 -0.43242,1.45788 -0.43242,0.67952 -1.22314,1.0131 -0.79071,0.3274 -1.9706,0.3274 -1.71733,0 -2.63777,-0.79071 -0.92044,-0.79689 -1.09958,-2.31654 z m 8.90787,-6.10949 h 3.61998 q 1.07488,0 1.59996,0.0927 0.53126,0.0865 0.94515,0.37065 0.42006,0.28416 0.69805,0.75983 0.27798,0.46948 0.27798,1.05634 0,0.63627 -0.34593,1.16753 -0.33976,0.53126 -0.92662,0.79689 0.82778,0.24092 1.27255,0.8216 0.44478,0.58068 0.44478,1.36522 0,0.61774 -0.29034,1.2046 -0.28416,0.58068 -0.78454,0.93279 -0.49419,0.34594 -1.22313,0.42625 -0.45713,0.0494 -2.20535,0.0618 h -3.08254 z m 1.82852,1.5073 v 2.09415 h 1.19843 q 1.06869,0 1.32815,-0.0309 0.46948,-0.0556 0.73511,-0.32122 0.27181,-0.27181 0.27181,-0.71041 0,-0.42007 -0.23474,-0.67952 -0.22857,-0.26563 -0.6857,-0.32122 -0.27181,-0.0309 -1.56289,-0.0309 z m 0,3.60145 V 6.0228 h 1.69262 q 0.98839,0 1.25402,-0.0556 0.40771,-0.0741 0.66099,-0.3583 0.25945,-0.29034 0.25945,-0.77218 0,-0.40771 -0.19768,-0.69187 -0.19768,-0.28416 -0.5745,-0.41389 -0.37065,-0.12972 -1.61849,-0.12972 z m 11.60741,3.94738 V 6.56642 q -0.35829,0.52508 -0.94514,0.82777 -0.58068,0.3027 -1.22932,0.3027 -0.66098,0 -1.18606,-0.29034 -0.52509,-0.29034 -0.75983,-0.81542 -0.23474,-0.52508 -0.23474,-1.4517 V 0.98819 h 1.73586 v 3.01459 q 0,1.38375 0.0927,1.6988 0.0988,0.30887 0.35211,0.49419 0.25328,0.17915 0.64246,0.17915 0.44477,0 0.79689,-0.24092 0.35211,-0.2471 0.48184,-0.60539 0.12972,-0.36447 0.12972,-1.77293 V 0.98819 h 1.73586 v 6.56044 z m 3.40995,-7.44999 V -1.5075 h 1.73586 v 1.60614 z m 0,7.44999 V 0.98819 h 1.73586 v 6.56044 z m 3.51497,0 V -1.5075 h 1.73586 v 9.05613 z m 9.53179,0 h -1.61232 V 6.58495 q -0.40153,0.56215 -0.95132,0.84013 -0.54362,0.27181 -1.09959,0.27181 -1.13047,0 -1.93971,-0.90808 -0.80307,-0.91427 -0.80307,-2.54511 0,-1.66791 0.78453,-2.53275 0.78454,-0.87102 1.98296,-0.87102 1.09959,0 1.90266,0.91426 V -1.5075 h 1.73586 z m -4.63308,-3.4223 q 0,1.05016 0.29034,1.51965 0.42006,0.67952 1.17371,0.67952 0.59921,0 1.01928,-0.50655 0.42006,-0.51273 0.42006,-1.52583 0,-1.13047 -0.40771,-1.62467 -0.40771,-0.50037 -1.04399,-0.50037 -0.61774,0 -1.03781,0.4942 -0.41388,0.48801 -0.41388,1.46405 z m 24.59857,3.4223 h -1.98914 l -0.79071,-2.05709 h -3.61998 l -0.74747,2.05709 h -1.93972 l 3.52732,-9.05613 h 1.93354 z m -3.36671,-3.58291 -1.24784,-3.36053 -1.22313,3.36053 z m 5.98594,3.58291 h -1.73586 V 0.98819 h 1.61231 v 0.93279 q 0.41389,-0.66098 0.7413,-0.87102 0.33358,-0.21003 0.75365,-0.21003 0.59303,0 1.14282,0.3274 l -0.53744,1.51348 q -0.43859,-0.28416 -0.81542,-0.28416 -0.36447,0 -0.61774,0.20385 -0.25328,0.19768 -0.40154,0.72276 -0.14208,0.52508 -0.14208,2.19917 z m 7.06082,-2.08797 1.72969,0.29034 q -0.33359,0.95132 -1.05635,1.45169 -0.71658,0.4942 -1.79763,0.4942 -1.71115,0 -2.53275,-1.11812 -0.64863,-0.89573 -0.64863,-2.26094 0,-1.63085 0.85248,-2.55128 0.85249,-0.92662 2.15593,-0.92662 1.46405,0 2.31036,0.96986 0.84631,0.96368 0.80925,2.95899 h -4.34892 q 0.0185,0.77218 0.42006,1.2046 0.40154,0.42625 1.00075,0.42625 0.40771,0 0.6857,-0.22239 0.27798,-0.22239 0.42006,-0.71658 z m 0.0988,-1.7544 q -0.0185,-0.75365 -0.38918,-1.14282 -0.37064,-0.39536 -0.9019,-0.39536 -0.56833,0 -0.93897,0.41389 -0.37065,0.41389 -0.36447,1.12429 z m 4.4354,-0.71658 -1.57525,-0.28416 q 0.26563,-0.95133 0.91426,-1.40846 0.64864,-0.45713 1.92737,-0.45713 1.16136,0 1.72968,0.27798 0.56833,0.27181 0.79689,0.69806 0.23474,0.42006 0.23474,1.55053 l -0.0185,2.0262 q 0,0.86485 0.0803,1.27873 0.0865,0.40772 0.31505,0.8772 h -1.71733 q -0.068,-0.17297 -0.16679,-0.51273 -0.0432,-0.15443 -0.0618,-0.20385 -0.44477,0.43242 -0.95132,0.64863 -0.50655,0.21621 -1.08106,0.21621 -1.0131,0 -1.59995,-0.54979 -0.58068,-0.54979 -0.58068,-1.38993 0,-0.55597 0.26563,-0.98839 0.26563,-0.4386 0.74129,-0.66716 0.48184,-0.23474 1.38375,-0.40771 1.21695,-0.22857 1.68644,-0.42625 V 3.0947 q 0,-0.50038 -0.2471,-0.71041 -0.2471,-0.21621 -0.93279,-0.21621 -0.46331,0 -0.72276,0.18532 -0.25946,0.17915 -0.42007,0.63628 z m 2.32272,1.40846 q -0.33358,0.11119 -1.05634,0.26563 -0.72276,0.15443 -0.94515,0.30269 -0.33976,0.24092 -0.33976,0.61157 0,0.36447 0.27181,0.6301 0.2718,0.26563 0.69187,0.26563 0.46948,0 0.89573,-0.30888 0.31505,-0.23474 0.41389,-0.5745 0.0679,-0.22239 0.0679,-0.84631 z"
       id="text5"
       style="font-weight:bold;font-size:12.6514px;line-height:1.25;font-family:Arial;-inkscape-font-specification:'Arial Bold';letter-spacing:0px;word-spacing:0px;stroke-width:0.333933"
       aria-label="MSBuild   Area" /><path
       d="m -174.97488,20.89884 v -9.05613 h 1.82852 v 4.02151 l 3.69411,-4.02151 h 2.45862 l -3.40995,3.52732 3.59527,5.52881 h -2.36596 l -2.48951,-4.25008 -1.48258,1.51347 v 2.73661 z m 9.11172,0 v -9.05613 h 6.71488 v 1.532 h -4.88636 v 2.00767 h 4.5466 v 1.52583 h -4.5466 v 2.4648 h 5.05933 v 1.52583 z m 8.43839,0 v -9.05613 h 6.71488 v 1.532 h -4.88636 v 2.00767 h 4.5466 v 1.52583 h -4.5466 v 2.4648 h 5.05932 v 1.52583 z m 8.43838,0 v -9.05613 h 2.93429 q 1.66791,0 2.17446,0.1359 0.77835,0.20386 1.30344,0.88955 0.52508,0.67952 0.52508,1.76057 0,0.83396 -0.3027,1.40228 -0.30269,0.56833 -0.77218,0.89573 -0.4633,0.32123 -0.94514,0.42624 -0.65481,0.12973 -1.89648,0.12973 h -1.19225 v 3.41613 z m 1.82852,-7.52413 v 2.56982 h 1.00075 q 1.08105,0 1.44552,-0.14208 0.36447,-0.14208 0.56833,-0.44478 0.21003,-0.30269 0.21003,-0.70423 0,-0.49419 -0.29034,-0.81542 -0.29034,-0.32123 -0.73512,-0.40153 -0.3274,-0.0618 -1.31579,-0.0618 z m 9.52562,3.05166 q 0,-1.38375 0.41389,-2.32272 0.30887,-0.69187 0.84013,-1.24167 0.53744,-0.54979 1.17371,-0.81542 0.84631,-0.35829 1.95208,-0.35829 2.00149,0 3.19991,1.24167 1.2046,1.24166 1.2046,3.45319 0,2.19299 -1.19224,3.43465 -1.19225,1.23549 -3.18756,1.23549 -2.02003,0 -3.21227,-1.22931 -1.19225,-1.23549 -1.19225,-3.39759 z m 1.88412,-0.0618 q 0,1.53819 0.71041,2.33508 0.7104,0.79071 1.80381,0.79071 1.09341,0 1.79146,-0.78454 0.70422,-0.79071 0.70422,-2.36596 0,-1.55671 -0.68569,-2.32271 -0.67952,-0.76601 -1.80999,-0.76601 -1.13047,0 -1.82235,0.77836 -0.69187,0.77218 -0.69187,2.33507 z m 8.31483,-4.52188 h 1.82852 v 4.90488 q 0,1.16754 0.068,1.51348 0.11738,0.55597 0.55597,0.89573 0.44478,0.33358 1.21078,0.33358 0.77836,0 1.17372,-0.31505 0.39535,-0.32123 0.47566,-0.78454 0.0803,-0.4633 0.0803,-1.53818 v -5.0099 h 1.82852 v 4.75663 q 0,1.63084 -0.14826,2.30418 -0.14826,0.67334 -0.54979,1.13665 -0.39536,0.46331 -1.06252,0.74129 -0.66716,0.27181 -1.74204,0.27181 -1.29726,0 -1.9706,-0.29652 -0.66716,-0.30269 -1.05634,-0.77835 -0.38918,-0.48184 -0.51273,-1.00693 -0.17915,-0.77835 -0.17915,-2.298 z m 11.18735,9.05613 v -7.52413 h -2.68719 v -1.532 h 7.19672 v 1.532 h -2.68101 v 7.52413 z"
       id="text5-6"
       style="font-weight:bold;font-size:12.6514px;line-height:1.25;font-family:Arial;-inkscape-font-specification:'Arial Bold';letter-spacing:0px;word-spacing:0px;stroke-width:0.333933"
       aria-label="KEEP OUT" /></g></svg>
